<?xml version="1.0" encoding="UTF-8"?>
<svg version="1.1" viewBox="0 0 2048 816" width="125" height="65" xmlns="http://www.w3.org/2000/svg">
<path transform="translate(0)" d="m0 0h2048v816h-2048z" fill="#fff"/>
<path transform="translate(322,105)" d="m0 0h51l18 2 36 8 26 9 23 10 23 13 13 9 13 10 11 9 10 9 14 14 9 11 13 17 13 21 13 25 9 23 6 19 6 27 3 24 1 12v34l-3 25-6 28-10 30-9 20-10 19-12 19-10 13-11 13-9 10-13 13-11 9-17 13-17 11-21 12-26 11-26 8-26 6-24 3-16 1h-18l-25-2-24-4-30-8-22-8-25-12-24-15-19-14-14-12-13-12-7-8-12-14-10-13-15-24-8-15-10-24-7-21-6-25-4-28-1-16v-31l3-26 6-27 6-20 10-25 13-25 13-20 9-12 11-13 9-10 14-14 14-11 18-14 24-14 25-12 28-10 29-7 18-3z" fill="#fff"/>
<path transform="translate(322,105)" d="m0 0h51l18 2 36 8 26 9 23 10 23 13 13 9 13 10 11 9 10 9 14 14 9 11 13 17 13 21 13 25 9 23 6 19 6 27 3 24 1 12v34l-3 25-6 28-10 30-9 20-10 19-12 19-10 13-11 13-9 10-13 13-11 9-17 13-17 11-21 12-26 11-26 8-26 6-24 3-16 1h-18l-25-2-24-4-30-8-22-8-25-12-24-15-19-14-14-12-13-12-7-8-12-14-10-13-15-24-8-15-10-24-7-21-6-25-4-28-1-16v-31l3-26 6-27 6-20 10-25 13-25 13-20 9-12 11-13 9-10 14-14 14-11 18-14 24-14 25-12 28-10 29-7 18-3zm14 30-23 2-31 6-23 7-23 10-20 11-21 14-11 9-11 10-7 6-7 8-10 11-14 19-9 15-8 14-10 24-7 21-5 23-3 22v35l2 21 5 27 7 24 11 26 10 19 10 15 10 13 11 13 21 21 14 11 14 10 15 9 17 9 25 10 24 7 27 5 9 1 25 1 21-1 26-4 24-6 20-7 24-11 21-12 18-13 13-11 22-22 11-14 10-14 12-20 11-23 8-22 6-24 4-26 1-14v-14l-3-34-5-25-8-26-10-24-11-20-13-19-11-14-14-15-11-11-14-11-18-13-18-10-23-11-30-10-24-5-14-2-14-1z" fill="#161616"/>
<path transform="translate(444,241)" d="m0 0 5 1 2 2 1 6v284l-2 13-4 9-6 9-10 9-13 6-11 2-14-1-12-5-11-8-8-10-5-12-1-4-1-52-7-7-8-7-20-20-9-11-10-14-10-18-6-14-3-11 5-15 11-21 12-17 13-16 22-22 11-9 10-8 24-16 20-11 24-9z" fill="#161616"/>
<path transform="translate(1e3 243)" d="m0 0h18l18 4 16 8 9 8 7 11 4 11 2 12v113l-3 16-7 14-10 11-12 7-13 4-10 2h-19l-20-4-14-7-10-9-7-11-4-13-1-5v-124l4-14 7-12 9-9 10-6 10-4z" fill="#161616"/>
<path transform="translate(1843,243)" d="m0 0h18l15 3 15 6 10 8 7 8 6 12 3 14v119l-4 16-7 13-10 10-16 8-18 4h-19l-16-3-13-5-11-8-7-9-6-12-3-14v-120l4-15 6-11 9-10 11-7 15-5z" fill="#161616"/>
<path transform="translate(1355,243)" d="m0 0h17l16 3 13 5 12 9 8 10 5 12 2 8 1 9v54l-3 7-5 4-3 1h-81v39l2 12 4 6 6 4 8 2h13l10-3 6-5 3-7 2-17 5-6 2-1h23l6 4 2 5v14l-3 14-4 10-7 9-8 8-14 7-16 4-8 1h-11l-18-3-12-4-11-7-9-10-6-12-3-11-1-11v-110l2-12 5-12 6-9 5-5 7-6 10-5 15-4z" fill="#161616"/>
<path transform="translate(1195,246)" d="m0 0h19l12 3 10 5 9 9 6 12 3 13v164l-3 5-6 3h-20l-6-3-3-4-1-7v-124l-1-25-4-9-9-6-5-1h-11l-8 3-8 6-3 6-1 5-1 151-4 6-8 3h-15l-8-3-3-4-1-5v-190l2-6 4-4 6-2h14l7 3 3 4 2 13 6-8 9-7 12-5z" fill="#161616"/>
<path transform="translate(1680,244)" d="m0 0h12l18 3 12 5 9 6 7 7 7 14 3 15v12l-2 5-5 3-4 1h-15l-7-2-5-6-2-15-4-8-7-4-3-1h-18l-8 4-4 6-1 3v23l4 8 10 6 27 14 19 10 11 7 8 9 6 12 2 10v26l-3 12-4 10-9 11-12 8-15 5-14 2h-13l-16-2-15-5-10-7-7-7-7-14-3-13v-16l3-5 5-3h21l6 3 3 6 2 15 4 6 8 5 5 1h14l11-4 5-6 2-6v-17l-4-8-8-7-17-9-23-11-14-8-10-9-6-9-4-10-2-13v-16l2-13 5-13 6-8 9-8 13-6 13-3z" fill="#161616"/>
<path transform="translate(1523,244)" d="m0 0h12l18 3 12 5 9 6 7 7 7 14 3 15v12l-2 5-5 3-4 1h-15l-7-2-4-4-1-2-2-14-3-8-5-4-6-2h-19l-8 5-3 5-1 3v23l4 8 10 6 29 15 22 12 10 9 6 8 4 9 2 9v25l-3 13-4 9-4 6-6 7-11 7-15 5-15 2h-12l-16-2-15-5-10-7-7-7-5-9-4-12-1-6v-17l4-5 4-2h21l6 3 3 6 2 15 4 6 8 5 4 1h15l11-4 5-6 2-6v-17l-4-8-8-7-44-22-14-9-8-8-7-14-3-14v-19l3-16 7-14 9-9 11-6 13-4z" fill="#161616"/>
<path transform="translate(418,283)" d="m0 0h2v212l-5-1-14-8-12-8-18-14-12-11-16-16-9-11-11-16-8-14-2-5 1-7 8-15 10-14 11-13 7-8 13-13 11-9 14-11 18-11z" fill="#fff"/>
<path transform="translate(887,209)" d="m0 0h22l6 4 2 3-1 10-17 37-16 36-13 29 1 8 17 37 12 27 17 38 4 11-1 6-5 4-2 1h-26l-6-3-6-10-43-101-4-11 1-10 15-34 21-49 11-25 8-7z" fill="#161616"/>
<path transform="translate(792,209)" d="m0 0h13l9 3 3 4 1 3v232l-3 5-4 3-3 1h-20l-6-3-3-4-1-8v-219l1-9 5-6z" fill="#161616"/>
<path transform="translate(238,247)" d="m0 0h22l3 3v278l-3 3-4 1h-12l-7-1-2-2v-279z" fill="#161616"/>
<path transform="translate(1012,279)" d="m0 0 11 1 9 4 5 6 3 8v113l-4 9-6 6-10 3h-13l-9-3-6-5-4-10-1-7v-101l2-10 4-6 6-5 6-2z" fill="#fff"/>
<path transform="translate(1850,279)" d="m0 0 11 1 7 3 6 5 4 9 1 8v97l-2 13-6 9-8 4-5 1h-13l-9-3-7-7-3-9v-112l4-10 7-6 6-2z" fill="#fff"/>
<path transform="translate(1958,154)" d="m0 0h12l13 4 9 6 7 7 7 14 1 3v19l-5 12-7 9-7 6-10 5-4 1h-20l-9-3-11-8-7-9-5-10-1-5v-16l4-11 6-9 7-7 12-6z" fill="#fff"/>
<path transform="translate(1357,279)" d="m0 0h14l9 3 7 6 3 7 1 6v32l-1 1h-53l-1-2v-29l2-10 5-8 6-4z" fill="#fff"/>
<path transform="translate(1265,539)" d="m0 0h7l1 25 8-6 10-1 8 3 7 8 3 9v9l-3 10-6 7-9 4h-8l-8-4-4-3v5l-4 2-3-2v-65z" fill="#161616"/>
<path transform="translate(1712,557)" d="m0 0h7l8 3 7 8 2 6v15l-4 9-7 6-5 2h-10l-8-5v-2h-2v24l-1 1h-6l-1-1v-65h7l1 6 8-6z" fill="#161616"/>
<path transform="translate(1958,154)" d="m0 0h12l13 4 9 6 7 7 7 14 1 3v19l-5 12-7 9-7 6-10 5-4 1h-20l-9-3-11-8-7-9-5-10-1-5v-16l4-11 6-9 7-7 12-6zm-2 8-12 5-6 5-7 11-2 5-1 10 2 11 4 8 9 10 11 5 4 1h12l13-5 8-7 6-9 2-5 1-6v-8l-4-13-7-9-9-6-8-3z" fill="#161616"/>
<path transform="translate(881,558)" d="m0 0h8l3 7 9 29 3-7 8-26 3-3h5l3 5 9 29 2 2 7-24 4-12h8l-1 9-12 35-4 4h-6l-4-8-8-24v-3h-2l-2 10-7 22-3 3h-6l-4-4-13-40z" fill="#161616"/>
<path transform="translate(1110,539)" d="m0 0h7l1 1v28l34-1 1-27 1-1h7v65h-8v-28h-35v27l-1 1h-8v-64z" fill="#161616"/>
<path transform="translate(848,556)" d="m0 0h10l7 3 5 5 2 6v33l-1 1h-6l-2-6-7 6-6 2-9-1-6-5-2-5v-8l4-6 9-4 17-2-2-9-5-1h-7l-6 2-5-1-1-5 7-4z" fill="#161616"/>
<path transform="translate(1332,556)" d="m0 0h9l8 3 5 6 2 13v14l-1 11-1 1h-5l-2-6-7 6-6 2-9-1-5-3-3-5v-10l3-5 6-4 10-2h11l-3-9-4-2h-7l-10 2-3-4 1-3z" fill="#161616"/>
<path transform="translate(1795,557)" d="m0 0h13l6 3 6 7 2 5v8l-5 2h-30l6 12 7 3 10-1 6-2h4l1 6-7 4-8 2-10-1-8-4-6-7-3-8v-12l4-9 7-6z" fill="#161616"/>
<path transform="translate(1191,557)" d="m0 0h13l6 3 5 6 3 8v6l-6 2h-29l4 9 5 5 8 1 9-2 7-1 1 5-5 4-10 3-10-1-8-4-7-8-2-6v-14l4-8 7-6z" fill="#161616"/>
<path transform="translate(1550,539)" d="m0 0h38v7l-1 1h-28v21h23l1 1v5l-2 2h-22l1 21 29 1v8h-39z" fill="#161616"/>
<path transform="translate(782,539)" d="m0 0h7l1 27h9l8-13 7-12 2-2h8l-1 5-10 16-5 7 1 5 15 27 2 4-2 1h-7l-7-10-11-19-10-1-1 29-1 1h-7v-64z" fill="#161616"/>
<path transform="translate(1601,539)" d="m0 0h8l1 35h6l11-13 2-3h8l-1 5-10 13-1 3 9 14 6 9-1 3-9-1-10-16-4-5h-6l-1 21-2 1-6-1z" fill="#161616"/>
<path transform="translate(994,556)" d="m0 0 6 1-2 9-18 44-5 8-5 4-8 2-5-2-1-5 4-1 6 1 5-5 2-4v-7l-16-38v-6h7l3 5 11 29 5-12 8-21z" fill="#161616"/>
<path transform="translate(1398,557)" d="m0 0h7l4 8 9 25v3h2l1-7 11-29h9l-1 5-12 30-9 22-5 6-5 3-5 1-7-2-1-4 3-2 7 1 4-1 2-5 2-4-1-7-16-39z" fill="#161616"/>
<path transform="translate(1870,557)" d="m0 0h7l4 6 10 27v4h2l1-9 10-26 1-2h8l-1 7-11 27-10 24-7 7-8 2-6-2-1-5 4-1 6 1 5-4 3-9-18-45z" fill="#161616"/>
<path transform="translate(385,513)" d="m0 0 5 2 30 15v7l-4 8-6 5-4 1h-7l-7-3-6-7-1-3z" fill="#fff"/>
<path transform="translate(1842,556)" d="m0 0h11l9 4-1 5-4 1-6-2h-7l-4 3 1 5 9 4 8 4 5 6 1 7-3 6-4 4-8 2-12-1-6-3-1-4 3-3 7 3 8 1 5-2 1-1v-6l-19-10-3-3-1-3v-8l3-5z" fill="#161616"/>
<path transform="translate(1659,556)" d="m0 0h11l7 3 2 4-2 3-9-2h-7l-4 1v6l4 3 12 5 6 5 1 3v9l-5 6-8 3-13-1-7-4 1-5 6 1 11 2 5-2 1-1v-7l-5-2-14-7-4-5-1-6 3-7 6-4z" fill="#161616"/>
<path transform="translate(1711,564)" d="m0 0 8 1 7 6 2 7v8l-3 7-4 4-8 2-7-3-4-5-2-5v-9l3-7 5-5z" fill="#fff"/>
<path transform="translate(1283,564)" d="m0 0 8 1 6 5 2 4v15l-3 6-5 3-7 1-5-2-5-6-2-5v-11l4-7 4-3z" fill="#fff"/>
<path transform="translate(1953,174)" d="m0 0h14l5 3 2 4v13l-3 4h-2l6 18v2h-5l-4-8-3-9-5-1-1 17h-5v-42z" fill="#161616"/>
<path transform="translate(1372,546)" d="m0 0h8v12h10l1 1v6h-11v22l2 7 9 4 1 6-2 2-11-2-5-4-3-7-1-27-5-2 1-5 5-2z" fill="#161616"/>
<path transform="translate(1493,564)" d="m0 0 8 1 7 6 2 9-3 8-5 4-3 1h-8l-6-4-4-6v-8l3-6 5-4z" fill="#161616"/>
<path transform="translate(1057,564)" d="m0 0 8 1 6 5 2 4v9l-3 6-7 4h-8l-7-4-3-5v-10l3-5 5-4z" fill="#161616"/>
<path transform="translate(1749,558)" d="m0 0h7l2 9 6-7 4-2h6v8l-11 4-4 6-1 3-1 24-1 3h-7l-1-3v-39z" fill="#161616"/>
<path transform="translate(1230,558)" d="m0 0h7l1 9 7-7 4-2h6v7l-7 3-5 3-3 4-1 4-1 22-1 5h-7l-1-1v-45z" fill="#161616"/>
<path transform="translate(1335,582)" d="m0 0h13l-1 8-7 8-2 1h-8l-4-4v-7l5-5z" fill="#fff"/>
<path transform="translate(851,582)" d="m0 0h12l1 2-3 9-7 6h-8l-4-4-1-5 3-5z" fill="#fff"/>
<path transform="translate(1797,564)" d="m0 0h10l5 4 2 5v3l-2 1h-23l-1-3 4-7z" fill="#fff"/>
<path transform="translate(1193,564)" d="m0 0h10l5 5 2 4v3l-2 1h-15l-9-1 1-5 4-5z" fill="#fff"/>
<path transform="translate(1958,180)" d="m0 0h10l2 6-1 8-4 2h-6l-1-1z" fill="#fff"/>
</svg>
