<?xml version="1.0" encoding="UTF-8"?>
<svg version="1.1" viewBox="0 0 2048 890" width="125" height="65" xmlns="http://www.w3.org/2000/svg">
<path transform="translate(0)" d="m0 0h2048v890h-2048z" fill="#FEFFFE"/>
<path transform="translate(812,70)" d="m0 0h357l15 4 16 8 13 11 10 12 8 15 5 19v496l-4 14-9 15-9 11-18 18-16 11-3 1-3-32-5-25-12-36-11-24-10-18-12-17-10-13-11-12-17-16-16-13-18-12-17-10-32-14-22-7-26-6-22-3h-43l-24 3-24 5-30 10-20 9-19 10-18 11-11 9-3 1v-351l1-14 4-14 8-17 8-10 6-7 12-9 15-8z" fill="#DC2725"/>
<path transform="translate(893,456)" d="m0 0h30l13 1 4 1 1 18-1 1-16 3-19 9-16 10-10 8-8 7h-2v2 1l15-11 25-13 15-6 8-2h16l12 3 21 10 19 12 14 10 7 8 1 2v9l-5 14-7 14-12 22-5 8v2l26-39 9-17 8 1 20 5 18 6 16 8 8 7 11 11 7 11 11 25 7 19 5 21 1 7v9l-2 10-7 18-12 22-7 10-7 4-7-1-20-9-38-13-3-16-9-26-11-26-8-17-10-16-6-5-20-3-61-6-11-1h-13l-7 7-11 14-13 17-12 17-10 15-7 12-3 4h-34l-49-1-1-21v-106l8-10 9-10 8-6 11-5 14-3 14-2h30l20 4 17 48 7 19v3h2l-5-25-8-27-8-21-28-5h-33l-22 3-8 2-2-13v-9l10-7 25-13 25-10 24-7 22-4z" fill="#DC2725"/>
<path transform="translate(891,603)" d="m0 0 20 2 68 9 12 3 7 11 7 14 13 30 10 27 2 7v13l-15 22-12 17-14 20-6 7-18 8-16 6-26-3-37-8-20-6v2l6 2 22 8 28 7 14 2 1 2-30 11-37 15-42 17-7 1-17-3-4-2 4-4 8-6 11-11 8-7 12-13 9-11 8-10-5-12-8-19-12-36-10-28v-2l8-7 10-11 9-12 14-19 13-18 10-13z" fill="#DC2725"/>
<path transform="translate(683,149)" d="m0 0h32l1 3v242l-1 1h-32l-1-14-13 9-14 6-12 2h-12l-10-2-12-5-10-6-10-10-9-13-5-13-3-14v-24l4-17 8-16 9-11 8-7 14-7 13-4h16l11 2 16 8 10 8h1z" fill="#DC2725"/>
<path transform="translate(1366,149)" d="m0 0h33v245l-1 1h-32l-1-4 1-10-7 4-9 6-12 5-12 2h-12l-10-2-12-5-9-6-14-14-6-10-5-13-3-15v-18l3-17 6-15 10-13 7-7 11-7 9-4 10-3h16l11 2 14 6 14 11z" fill="#DC2725"/>
<path transform="translate(757,150)" d="m0 0h32l1 1v117l6-4 9-7 14-6 13-2 15 1 12 4 13 7 11 10 6 8 7 14 4 16 1 17-2 16-4 13-7 14-10 12-8 6-14 7-11 3h-19l-12-3-10-4-12-9-3-2 1 2v12h-33l-1-119v-80z" fill="#FEFFFE"/>
<path transform="translate(285,249)" d="m0 0h21l14 4 13 8 7 6 1-14 1-1h31l1 1v141h-32l-1-1v-12l-13 9-10 5-14 3h-16l-10-2-12-5-11-8-8-8-7-10-6-14-3-13-1-9v-13l3-17 4-11 5-9 8-10 8-8 14-8z" fill="#DC2725"/>
<path transform="translate(992,249)" d="m0 0 13 1 13 4 12 7 10 8v-16h32v140l-28 1-4-1v-13l-10 7-12 7-9 3h-24l-14-4-13-7-11-10-9-14-5-11-3-12-1-9v-13l3-18 6-15 10-14 8-8 14-8 13-4z" fill="#FEFFFE"/>
<path transform="translate(74,149)" d="m0 0h32l1 1v55l1 58 11-8 9-4 9-2h17l14 4 10 6 9 9 5 10 3 12 1 8v96h-33l-1-17-1-79-4-10-5-5-7-3-11-1-9 2-6 3-6 7-4 13-1 7-1 43v39l-1 1h-32l-1-1v-243z" fill="#DC2725"/>
<path transform="translate(1791,149)" d="m0 0h32v147l5-3 8-9 8-7 25-25h44l-6 7-16 16h-2v2l-8 7-27 27h-2l9 12 26 32 20 25 10 13v1h-43l-8-9-12-16-22-28-5-5-3 5-1 53h-32l-1-1v-243z" fill="#DC2725"/>
<path transform="translate(1684,249)" d="m0 0 18 1 16 5 11 7 11 11 6 10 5 12 3 13 1 11v12l-101 1 1 10 4 9 6 8 10 6 7 2h14l10-3 8-5 7-8 7-10 16 8 12 7-6 10-9 10-10 9-10 6-11 4-16 3h-14l-12-2-13-5-13-9-9-10-5-8-6-15-3-16v-22l3-14 4-11 6-10 6-8 12-9 12-6 11-3z" fill="#DC2725"/>
<path transform="translate(742,686)" d="m0 0 79 1 3 8 10 36 10 30 8 18-1 4-9 10-7 8-9 10-10 10-11 9-8 5-3 2-6-1-18-10-7-6-10-14-6-13-4-14-2-21v-51z" fill="#DC2725"/>
<path transform="translate(475,249)" d="m0 0h20l16 4 11 7 8 10 5 12 2 11 1 14v37l-1 50h-32l-1-31-1-62-3-11-6-7-8-3h-15l-9 3-5 4-4 8-3 13-1 11-1 75h-32l-1-1v-140l1-1h32l1 1v10l4-2 8-6 10-5z" fill="#DC2725"/>
<path transform="translate(1114,150)" d="m0 0h32v243l-1 1h-30l-1-1-1-126z" fill="#FEFFFE"/>
<path transform="translate(1188,150)" d="m0 0h32v243l-12 1h-19l-1-1z" fill="#FEFFFE"/>
<path transform="translate(1940,201)" d="m0 0h32v51h25l1 1v20l-1 11h-25v110l-1 1h-30l-2-1v-110h-13l-1-1v-30l1-1h13v-50z" fill="#DC2725"/>
<path transform="translate(1573,249)" d="m0 0h16l10 3 8 5-5 12-10 18-5-2-8-3h-13l-8 4-6 9-3 9-1 8-1 81-1 1h-32v-141l1-1h32v12l11-9 10-5z" fill="#DC2725"/>
<path transform="translate(822,278)" d="m0 0h11l9 2 10 6 8 9 6 12 2 11v11l-3 14-6 11-10 10-12 5h-15l-12-3-9-7-6-7-5-10-2-8-1-13 2-13 5-12 9-10 10-6z" fill="#DC2725"/>
<path transform="translate(996,278)" d="m0 0h11l9 2 10 6 5 4 6 10 4 11 1 5v15l-4 15-6 9-7 7-10 5-8 2h-15l-10-4-10-9-5-7-5-15v-20l4-13 7-11 10-8 7-3z" fill="#DC2725"/>
<path transform="translate(295,279)" d="m0 0h17l9 3 9 7 7 8 5 12 1 6v17l-3 12-4 8-8 9-10 5-6 2-13 1-10-2-10-6-8-9-5-11-2-8v-19l4-13 7-10 9-8z" fill="#FEFFFE"/>
<path transform="translate(637,279)" d="m0 0h16l13 5 9 8 6 10 3 10 1 14-2 14-4 9-6 9-10 7-8 3h-18l-11-4-6-4-8-10-4-8-2-7v-23l4-12 8-11 10-7z" fill="#FEFFFE"/>
<path transform="translate(1320,279)" d="m0 0h16l11 4 6 4 8 9 4 8 2 6 1 7v13l-2 11-5 10-9 10-11 6-13 2-14-3-10-5-6-7-6-10-3-10v-22l5-13 7-9 8-7z" fill="#FEFFFE"/>
<path transform="translate(947,459)" d="m0 0 11 1 19 4 30 10 25 12 14 8 13 9 13 10 10 9 8 7 8 8 7 8 2 3-2 17-5-2-16-9-15-6-22-6-15-3-2-1v-10l-3-6-9-8-17-13-15-10-16-8-20-6-2-9z" fill="#DC2725"/>
<path transform="translate(1441,252)" d="m0 0h32v142h-32l-1-18v-123z" fill="#DC2725"/>
<path transform="translate(1040,718)" d="m0 0 7 1 27 11 19 9-1 3-28 11-49 20-13 5-3-1 10-13 14-19 11-16 5-8z" fill="#DC2725"/>
<path transform="translate(1453,173)" d="m0 0h8l10 5 6 8 2 5-1 10-6 9-8 5-10 1-7-3-7-5-4-7-1-9 3-8 7-8z" fill="#DC2725"/>
<path transform="translate(1683,279)" d="m0 0h11l10 3 8 6 6 8 2 5v4h-62l-2-1 3-9 9-10 9-5z" fill="#FEFFFE"/>
<path transform="translate(1115,560)" d="m0 0 5 5 10 14 14 27 7 16 7 22 6 27v4l-12-3-2-2-2-18-5-19-8-21-12-25-7-9-4-5 2-10z" fill="#DC2725"/>
<path transform="translate(1149,679)" d="m0 0 8 1 8 3 2 16v12l-12 6-26 10-2-1 12-22 7-15z" fill="#DC2725"/>
<path transform="translate(755,507)" d="m0 0h2l5 14-1 5-11 9-7 7h-1v-24z" fill="#DC2725"/>
</svg>
