<?xml version="1.0" encoding="UTF-8"?>
<svg version="1.1" viewBox="0 0 1912 884" width="125" height="65" xmlns="http://www.w3.org/2000/svg">
<path transform="translate(0)" d="m0 0h1912v884h-1912z" fill="#FDFDFD"/>
<path transform="translate(887,80)" d="m0 0h43l1 1 1 27 6 2 2 2 1 4 1 17 36 12 21 10 15 10 13 11 12 11 7 8 11 15 10 17 9 21 6 21 3 18 1 11v20l-3 23-6 23-8 20-9 17-10 14-11 13-6 6-1 3 9 3 21 5 27 5v29l-1 2h-11l-26-4-21-6-19-8-8-4-5 2-23 11-21 7-20 4-22 2-20-1-22-4-15-4-16-6-16-8-12-7-12-9-13-11-11-11-12-16-9-15-8-16-8-24-4-20-1-9v-31l3-21 5-19 6-16 10-20 12-17 9-10 7-8 13-12 17-12 16-9 17-7 27-9 1-22 4-2h4l1-26z" fill="#2C2C2C"/>
<path transform="translate(904,161)" d="m0 0 25 1 23 5 19 7 17 9 13 10 14 12 9 10 12 17 8 16 7 18 4 17 2 20v9l-3 25-5 19-6 15-11 19-11 14-9 10-5 4-5-2-13-11-11-9-11-10-19-14-21-12-24-10-16-5-14-3-17-2h-36l-21 2-26 4h-6l-4-21v-33l2-13 6-21 8-19 10-16 9-11 9-10 10-9 16-11 21-11 19-6 17-3z" fill="#B1D8EB"/>
<path transform="translate(904,161)" d="m0 0 25 1 23 5-4 1-10-2-17-1-6-1h-17l-5 1-9 1 3 4-2 5-1 2-8 3-5 4-4 6-5 13 5-2h3l1 7 5 5-3 3-2 11-3 16-2 7-2-1-2 5 1 6 1 5-4 1 5 9 3 3v2l3 1 3 5 4 4 7 8-4-8 1-3 4 4 1 5 4 3 1 3 5 3 2 4v9l2 2v5l3 1v7l4 5h6v2l5-1 4 4v2l10-2 5-2 9-1h10l16-4 42-3 11-3 11-4 14-3h3l1-3v11l-4 19-7 19-10 18-12 16-10 11-5 4-5-2-13-11-11-9-11-10-19-14-21-12-24-10-16-5-14-3-17-2h-36l-21 2-26 4h-6l-4-21v-33l2-13 6-21 8-19 10-16 9-11 9-10 10-9 16-11 21-11 19-6 17-3z" fill="#C8C4D7"/>
<path transform="translate(474,214)" d="m0 0h45l3 1 14 24 16 27 13 22 4 4 8-13 14-24 17-28 7-11 1-1 47-1-1 4-33 55-25 40-5 9 10 16 19 32 17 28 16 27 8 14v1l-44 1-5-4-13-21-19-32-14-23-5-8h-2l-9 16-11 18-19 32-8 13-6 8h-47l6-11 12-19 12-20 9-14 24-38 10-16-5-9-11-17-14-22-16-25-13-21-8-12z" fill="#2C2C2C"/>
<path transform="translate(1668,208)" d="m0 0h15l16 3 16 6 10 7 9 9 8 16 3 10 1 13-1 2-24 1-21-1-7-14-5-5-6-4-4-1h-11l-6 4-5 6-2 5v14l4 10 8 6 33 11 17 8 12 8 8 7 7 11 5 13 2 11v21l-3 16-5 12-8 11-9 8-12 6-13 4-15 2h-12l-16-2-14-4-13-7-8-7-7-10-7-14-5-15-2-11 18-1h17l10 1 4 16 5 8 6 4 3 1 18 1 9-1 8-5 5-6 3-8v-11l-4-10-7-8-9-6-15-6-15-5-16-8-11-7-11-11-7-12-4-14v-21l4-15 7-13 11-12 13-9 10-5 7-2z" fill="#2C2C2C"/>
<path transform="translate(232,215)" d="m0 0h123v36l-79 1v56h72v36l-72 1v59h84v35l-1 1h-127z" fill="#2C2C2C"/>
<path transform="translate(1152,215)" d="m0 0h35l1 1 1 148 3 16 7 14 8 7 11 4h14l10-3 8-6 6-8 5-11 2-11 1-15 1-136h35v150l-2 17-4 15-8 16-7 9-7 7-13 8-15 5-15 2-18-1-13-3-16-8-10-9-9-13-5-12-4-15-2-15z" fill="#2C2C2C"/>
<path transform="translate(818,370)" d="m0 0h39l19 3 18 5 16 7 15 9 15 11 10 9 8 7 12 12 5 7-8 4-18 6-19 4-10 1h-22l-21-3-20-6-18-8-14-9-10-8-10-9-9-10-11-15-5-9v-3l26-4z" fill="#F2CBD8"/>
<path transform="translate(1438,215)" d="m0 0h42l1 2-1 223h-42z" fill="#2C2C2C"/>
<path transform="translate(898,163)" d="m0 0h17l6 1 17 1 1 2h-21l-1 5 6 2-1 4-4 2-4 9-3 10-2 3-4 20-1 18-1 10 3 10 2 10 1 4 4 2 5 10v2l7 2 4 3v3h2l3 4 1 4 3 1v4l-3 1-4 4 4 3h-2l4 5-1 1 3 2h23l15-2 31-6 13-2 18-5 15-1 2-6h1v9l-1 11-19 4-13 5-9 2-42 3-16 4h-11l-10 2-7 1-3 2-3-1v-2l-4-2v-2l-5 1v-2l-6 1-5-6v-7l-2-1-2-6-1-1v-9l-2-4-6-3-1-4-3-2-2-8h-2l2 6 3 5-4-2-7-8v-2l-3-1-3-5-3-3v-2l-3-1-4-7v-2l3-1-1-5-1-6 3-6 2-1 4-18 1-7 2-7 2-2-6-7 1-5-5 2h-3l1-6 5-10 4-5 8-5 4-2 2-6-5-2 3-2 12-1z" fill="#BCCCE1"/>
<path transform="translate(1054,320)" d="m0 0h1v11l-4 19-7 19-10 18-12 16-10 11-5 4-5-2-13-11-11-9-11-10-19-14-4-5-2-2h2l-1-5-4-5-9-6-3-4 4-2 7-2 9-1h10l16-4 42-3 11-3 11-4 14-3h3z" fill="#FDFDFD"/>
<path transform="translate(858,182)" d="m0 0 4 2 1 5-5 5-3 6 1 3-7 13-8 14-8 16-4 11-3 17-1 12v10l4 12 2 7 4 2 7 8 2 1v2l-3 1-22 1-24 3h-12l-3-1-3-6-1-8v-13l-1-8 1-5 1-11 4-15h2v-7l5-10 1-4 4-4 2-6h2l1-5h2l1-5 5-7 5-5 3-4h2l1-3 13-7 2-2h3v-2l9-5 10-6z" fill="#DEC7D9"/>
<path transform="translate(1091,701)" d="m0 0h16l11 4 8 6 6 8 3 8 1 13-2 9-5 9-7 7-10 5-4 1h-19l-12-6-5-5-6-8-3-9v-13l4-11 6-8 7-6z" fill="#FCFCFC"/>
<path transform="translate(860,169)" d="m0 0h12l-1 2-5 1v2l-5 5-4 5-12 6-7 5h-3v2l-7 4-11 6-6 7-3 4h-2l-2 4-3 4-1 4h-2l-1 5h-2l-1 6-3 4h-2l-1 6-4 8-1 7h-2l-1 8-3 14v8l-1 4 1 9v13l3 8 3 2h12l24-3h22l5 2-1 3 8 1 12 2 15 1 10 3 14 5 10 2 5 3 5 2 1 4 3 1-1 2-24-10-16-5-14-3-17-2h-36l-21 2-26 4h-6l-4-21v-33l2-13 6-21 8-19 10-16 9-11 9-10 10-9 16-11 21-11z" fill="#DCBCCA"/>
<path transform="translate(828,200)" d="m0 0 2 1-4 5-7 4-4 11 1 7-2 14-3 1-2 4 1 10 2 1-1 3-3 1 1 6h-2l1 3-1 5 1 8-3 7-2 1-1 16h-2v4l2 1 1-5 5 5v6l-2 4v4l5 2v2l-20 2h-8l-3-1-3-6-1-8v-13l-1-8 1-5 1-11 4-15h2v-7l5-10 1-4 4-4 2-6h2l1-5h2l1-5 5-7 5-5 3-4h2l1-3z" fill="#F2CBD9"/>
<path transform="translate(1444,701)" d="m0 0h13l9 3 5 4 4 7 1 4v8l-3 6-6 5-3 1 1 5 8 17 4 8-1 3-5-3-11-23-1-6-14 1v29l-5 1-1-2 1-67z" fill="#2C2C2C"/>
<path transform="translate(369,701)" d="m0 0h16l8 3 7 8 2 6v10l-3 6-7 5h-3l12 25 2 4v3l-5-1-12-24-2-5-14-1v31h-4v-62l1-7z" fill="#2C2C2C"/>
<path transform="translate(146,701)" d="m0 0h15l9 3 5 5 3 4 1 3v13l-4 6-6 4-4 1h-17v31h-4v-68z" fill="#2C2C2C"/>
<path transform="translate(1203,700)" d="m0 0 6 3 11 13 9 11 12 14 9 11 6 8 1-17 1-41h6v69l-6-1-12-13-9-11-11-13-9-11-8-10-1 59h-6v-70z" fill="#2C2C2C"/>
<path transform="translate(698,701)" d="m0 0 4 1 7 8 14 20 10 14h2l16-23 10-13 6-7h3l1 37v33h-6l-1-60-17 25-12 16-4-1-6-9-12-17-9-13-1 59h-6v-61z" fill="#2C2C2C"/>
<path transform="translate(923,701)" d="m0 0 5 1 12 15 11 16 8 11h2l12-17 10-14 9-11h4v69h-5l-1-59-13 18-12 17-4 5h-3l-11-15-12-17-5-7-2-1 1 5v54h-6l-1-2z" fill="#2C2C2C"/>
<path transform="translate(271,700)" d="m0 0 4 4 6 14 11 28 10 24-2 2-3-1-11-26v-2l-29 1-9 21-3 6-4 1 1-6 22-54 5-11z" fill="#2C2C2C"/>
<path transform="translate(1681,700)" d="m0 0 4 2 5 10 11 28 12 28 1 3-2 1-5-3-10-24v-2l-29 1-9 22-4 6h-3l1-5 16-39 10-24z" fill="#2C2C2C"/>
<path transform="translate(806,371)" d="m0 0h11v1l-16 2-1 6-1 5 2 4 1 5h3l1 4 4 2 5 6 7 9 2 1v2l4 1 5 5 12 7 12 6 4 1v2l7 2 1 3 3 1-1 2-1-1-20-4-16-8-13-9-13-11-12-13-11-15-5-9v-3z" fill="#DBBCCA"/>
<path transform="translate(1091,701)" d="m0 0h16l11 4 8 6 6 8 3 8 1 13-2 9-5 9-7 7-10 5-4 1h-19l-12-6-5-5-6-8-3-9v-13l4-11 6-8 7-6zm4 4-10 3-8 6-6 8-3 10v9l3 10 7 9 8 5 7 2h12l11-4 9-8 4-7 1-4v-16l-6-12-8-7-8-3z" fill="#2C2C2C"/>
<path transform="translate(1543,701)" d="m0 0h40l1 4-1 1-35 1v26h32v5l-32 1v27h34l2 1-1 4h-41v-69z" fill="#2C2C2C"/>
<path transform="translate(580,701)" d="m0 0 4 1 1 46 3 10 4 5 6 3h11l6-4 5-6 2-13 1-41 4-1v51l-3 8-7 8-7 3-9 1-10-3-6-5-5-10-1-6v-46z" fill="#2C2C2C"/>
<path transform="translate(472,701)" d="m0 0h40l-2 5h-35v29h33l-1 6h-32v29l-1 1h-5l1-69z" fill="#2C2C2C"/>
<path transform="translate(1326,701)" d="m0 0h54l1 4-2 1-21 1-2-1v65h-6l-1-64-24-1z" fill="#2C2C2C"/>
<path transform="translate(149,707)" d="m0 0h14l6 3 4 5 1 3v9l-5 6-5 2h-15l-1-1v-26z" fill="#FCFCFC"/>
<path transform="translate(1445,707)" d="m0 0h15l7 4 3 5 1 9-4 7-7 3h-15l-1-2z" fill="#FAFAFB"/>
<path transform="translate(372,707)" d="m0 0h14l6 3 4 6 1 3v8l-4 5-3 2-8 1h-11v-27z" fill="#FBFBFC"/>
<path transform="translate(944,417)" d="m0 0 9 3 9 5 8 8 5 7-8 4-18 6-4 1h-10l3-2 8-2 3-3 5-2-1-4h-6l-5-4v-15z" fill="#FBF9FA"/>
<path transform="translate(1780,701)" d="m0 0 4 2v63h38l2 1v3l-3 1h-43v-69z" fill="#2C2C2C"/>
<path transform="translate(271,707)" d="m0 0 2 2 11 28-1 2-24-1 7-20 4-10z" fill="#FAFAFB"/>
<path transform="translate(1682,708)" d="m0 0 2 1 11 28-1 2h-24l3-9 8-21z" fill="#FAFAFB"/>
<path transform="translate(781,236)" d="m0 0 2 2-4 8-3 7-3 10-3 13-3 18v30l3 16 3 2-1 2-2-1v2l3 1h-6l-4-21v-33l2-13 6-21 8-19z" fill="#C8C4D7"/>
<path transform="translate(832,337)" d="m0 0h16l19 1h13l10 3 14 5 10 2 5 3 5 2 1 4 3 1-1 2-24-10-16-5-14-3-17-2h-45v-1z" fill="#D5BFCF"/>
<path transform="translate(906,89)" d="m0 0 7 1 1 1v10l-3 2-8-1-2-2v-8z" fill="#F7F6F9"/>
<path transform="translate(1571,684)" d="m0 0h4l-2 5-6 8h-5l1-4z" fill="#2C2C2C"/>
</svg>
