<?xml version="1.0" encoding="UTF-8"?>
<svg version="1.1" viewBox="0 0 2048 600" width="125" height="65" xmlns="http://www.w3.org/2000/svg">
<path transform="translate(0)" d="m0 0h2048v600h-2048z" fill="#FCFCFC"/>
<path transform="translate(388,223)" d="m0 0 90 1 1 3-4 22-6 16-10 16-7 9-9 9-14 9-17 7-15 3 24 8 15 8 10 8 8 8 7 10 8 14 6 18 3 14v9h-90l-17-2-16-4-18-8-10-7-10-10-7-10-8-14-6-16-4-18v-14l3-16 5-15 8-15 9-12 8-9 10-7 17-8 13-4 11-2z" fill="#FEB805"/>
<path transform="translate(80,223)" d="m0 0h35l17 2 20 6 17 9 9 7 7 7 9 13 9 17 5 18 2 12v8l-3 18-5 15-8 16-8 11-9 10-11 8-17 8-21 5-14 2h-89l-1-1v-9l3-16 5-13 6-12 12-16 6-7 13-9 16-8 18-5-17-5-14-6-13-9-12-12-10-14-7-15-4-13-2-10v-11z" fill="#E55216"/>
<path transform="translate(252,359)" d="m0 0 16 2 20 6 15 8 14 10 8 8 9 14 6 15 4 14 2 15v93h-17l-14-4-17-8-17-12-8-8-9-13-7-14-4-13-2-10-6 21-8 17-10 13-10 10-14 9-17 8-10 3-8 1h-12v-94l3-17 7-21 7-13 9-11h2v-2l17-12 16-8 18-5z" fill="#B769A5"/>
<path transform="translate(156,94)" d="m0 0h12l16 4 16 7 18 12 10 9 8 11 8 16 5 17 1 5h2l1-8 5-16 7-13 10-13 11-10 10-7 16-8 12-4 12-2h10v92l-3 18-4 14-6 14-8 12-14 14-13 8-13 6-20 6-17 2-1-1-14-2-20-7-17-9-12-9-7-7-11-19-5-14-4-18-1-10z" fill="#A6D7D5"/>
<path transform="translate(1218,170)" d="m0 0h17l16 4 14 7 7 5 7 9 25-10 23-9h9l1 162 2 16 4 13 6 8 9 4v9h-87l-1-1v-7l10-6 5-7 4-13 2-14v-94l-2-21-4-10-3-5-2-1-2 6-5 6-9 3-12-1-9-5-4-5-1-7 1-6v-12l-5-5-3-1h-12l-5 5-5 10-4 18-1 10v18l44 1v17l-1 1h-44v60l2 25 4 18 6 9 4 3 5 2 1 1v8h-88l1-9 10-5 6-12 3-14 1-12v-74h-20v-19h20l4-27 3-10 7-14 8-9 11-7 12-4z" fill="#1F1F1F"/>
<path transform="translate(1430,242)" d="m0 0h23l17 3 16 7 11 7 9 9 7 11 5 13 3 16v17l-3 16-5 11-7 11-11 11-14 8-11 4-15 3h-27l-19-4-10-4-12-8-7-6-8-11-6-12-4-18v-23l4-15 8-16 11-12 10-7 15-7 12-3z" fill="#1F1F1F"/>
<path transform="translate(1045,242)" d="m0 0h15l19 3 12 4 11 6 10 9 9 10 6 13 4 15 1 9v10l-3 17-4 12-6 10-11 12-10 7-13 6-13 3-9 1h-22l-17-3-11-4-9-5-11-9-8-9-6-10-5-16-1-9v-16l2-13 4-12 8-13 11-11 10-7 11-5 17-4z" fill="#1F1F1F"/>
<path transform="translate(662,243)" d="m0 0h67l1 96 3 9 8 7 9 3h13l6-4 1-1v-58l-2-16-3-12-6-10-10-5v-8l67-1v59l1 29 3 16 6 8 12 7-5 5-45 18-8 3h-9l-1-24-14 14-7 5-13 5-6 1h-14l-11-4-8-6-7-9-4-12-1-6-2-66-3-15-4-10-5-5-8-3z" fill="#1F1F1F"/>
<path transform="translate(99,320)" d="m0 0h110v8l-3 15-6 17-8 14-10 13-11 10-15 8-14 5-19 4-9 1h-89l-1-1v-9l3-16 5-13 6-12 12-16 6-7 13-9 16-8z" fill="#AE140F"/>
<path transform="translate(388,223)" d="m0 0 90 1 1 3-4 22-6 16-10 16-7 9-9 9-14 9-17 7-8 2-12 2-97-1-2-1v-11l4-17 7-16 9-14 11-13 11-8 17-8 13-4 11-2z" fill="#F28804"/>
<path transform="translate(252,359)" d="m0 0 16 2 20 6 15 8 14 10 8 8 9 14 6 15 4 14 2 15v93h-17l-14-4-17-8-17-12-8-8-9-13-7-14-4-13-1-5z" fill="#81207F"/>
<path transform="translate(156,94)" d="m0 0h12l16 4 16 7 18 12 10 9 8 11 8 16 5 17 1 6v102l-3 1-14-2-20-7-17-9-12-9-7-7-11-19-5-14-4-18-1-10z" fill="#00ACBB"/>
<path transform="translate(588,242)" d="m0 0h15l15 3 16 8 10 9 7 10 6 13 4 20v11l-93 2 1 10 5 12 6 9 4 5 10 6 13 4h21l12-6 9-8 6-8h2l3 4-2 5-10 13-7 7-10 7-18 8-12 3h-20l-13-2-12-4-11-6-9-7-8-10-6-13-3-13v-24l2-11 4-13 7-13 7-9 14-11 15-7 12-3z" fill="#1F1F1F"/>
<path transform="translate(1688,185)" d="m0 0 14 1 9 4 7 6 4 8 1 4v10l-4 8-9 6-7 2h-9l-13-3h-19l-14 3-13 7-12 11-10 14-9 17-8 21-1 3v34l2 14 3 10 6 10 10 4v8l-1 1h-86l-1-1v-7l5-3 6-4 5-9 4-17 1-10v-20l-1-17-3-14-6-9-11-7v-3l23-10 32-13 10-1 1 1 1 41 8-21 8-16 9-16 10-13 9-10 10-9 13-8 13-5z" fill="#1F1F1F"/>
<path transform="translate(897,243)" d="m0 0h8v47l10-21 8-12 12-10 10-3h8l8 3 7 8 3 9v14l-5 8-3 3-8 1-17-8-7-1-9 3-10 9-6 7v39l2 16 4 13 6 8 8 2 1 9-1 1h-87v-9l9-4 5-6 3-9 3-17v-42l-3-14-5-8-10-8-3-2v-2l41-17z" fill="#1F1F1F"/>
<path transform="translate(1813,239)" d="m0 0h20l18 4 15 8 3 4v14l-1 20-4 1-5-8-9-16-9-10-8-5-12-1-10 2-9 6-4 5-2 8 2 6 4 5 9 5 15 7 18 8 11 7 9 9 6 13 1 3v18l-4 11-8 11-10 7-10 5-15 4-7 1h-22l-18-4-16-8-2-2-1-11-1-27 4 1 9 17 11 12 7 6 9 4 11 1 13-3 6-4 4-9v-8l-4-8-10-8-25-12-12-8-10-9-6-7-4-8-2-12 2-11 6-11 5-6 10-7 13-6 12-3z" fill="#1F1F1F"/>
<path transform="translate(1936,202)" d="m0 0h6l1 41 41 1v17l-1 1h-41v87l1 11 3 6 5 2h11l12-6 10-9 3-1v6l-10 13-8 7-14 8-11 3-11 1-15-2-10-5-7-8-3-10-1-7v-96h-17l-2-5 16-9 10-8 11-11 13-17 7-9z" fill="#1F1F1F"/>
<path transform="translate(1718,243)" d="m0 0h8l1 97 3 19 5 12 7 6 6 2v9h-88v-8l5-3 6-4 5-10 3-11 2-15v-18l-1-19-4-16-5-7-11-7 1-4 54-22z" fill="#1F1F1F"/>
<path transform="translate(1437,252)" d="m0 0h9l7 3 7 6 6 10 5 17 2 14v30l-4 20-5 12-6 8-8 6-3 1h-11l-10-6-7-10-5-13-3-16-1-13v-16l3-20 5-15 7-10 7-6z" fill="#FBFAFB"/>
<path transform="translate(1051,252)" d="m0 0 8 1 7 4 5 5 6 9 4 13 3 18v27l-3 19-4 12-6 10-8 7-5 2h-11l-9-5-8-11-5-12-3-17-1-20 2-25 5-16 4-8 7-8 7-4z" fill="#FBFAFB"/>
<path transform="translate(589,255)" d="m0 0h12l10 5 7 8 4 11v13l-4 9-7 5-7 2h-39l1-17 3-14 7-13 8-7z" fill="#FAF7F9"/>
</svg>
