<?xml version="1.0" standalone="no"?>
<!DOCTYPE svg PUBLIC "-//W3C//DTD SVG 20010904//EN"
 "http://www.w3.org/TR/2001/REC-SVG-20010904/DTD/svg10.dtd">
<svg version="1.0" xmlns="http://www.w3.org/2000/svg"
 width="762.000000pt" height="263.000000pt" viewBox="0 0 762.000000 263.000000"
 preserveAspectRatio="xMidYMid meet">

<g transform="translate(0.000000,263.000000) scale(0.100000,-0.100000)"
fill="#000000" stroke="none">
<path d="M1500 2470 c-130 -23 -294 -76 -417 -135 -287 -136 -575 -365 -701
-558 -65 -100 -87 -163 -87 -257 0 -96 33 -168 107 -235 205 -184 595 -223
1438 -144 118 11 298 23 400 26 146 4 192 9 220 23 83 41 152 32 207 -27 24
-25 38 -33 53 -28 11 3 20 12 20 19 0 17 -39 53 -73 65 -45 17 -151 13 -207
-8 l-50 -19 -11 40 c-13 49 -7 88 37 249 29 109 59 198 129 392 14 36 14 37
-11 37 -30 0 -43 -28 -119 -255 -69 -206 -96 -312 -98 -384 l-2 -58 -188 -12
c-103 -6 -245 -18 -315 -26 -301 -35 -734 -46 -927 -25 -268 30 -465 131 -530
273 -32 68 -34 172 -5 251 78 206 349 448 694 616 255 125 378 155 631 155
204 0 259 -10 384 -71 73 -36 98 -38 108 -7 6 16 -110 70 -202 94 -117 31
-344 35 -485 9z"/>
<path d="M4938 2440 c-89 -69 -208 -481 -272 -940 l-22 -155 -30 -3 c-16 -2
-43 -14 -59 -27 l-30 -24 58 -1 58 0 -6 -47 c-27 -248 -44 -506 -48 -750 -2
-155 -1 -163 19 -184 28 -28 39 -20 53 38 16 69 42 123 58 123 7 0 13 5 13 10
0 18 -43 10 -68 -12 l-25 -23 7 190 c5 166 18 344 42 588 7 67 7 67 38 67 18
0 43 10 61 25 l30 24 -57 1 c-32 0 -58 4 -58 10 0 29 44 307 64 407 34 164 81
348 112 435 53 148 121 249 158 235 17 -7 57 -88 96 -196 31 -87 53 -121 77
-121 11 0 11 4 0 28 -8 15 -22 52 -32 82 -19 57 -65 154 -87 180 -50 59 -107
75 -150 40z"/>
<path d="M5883 1942 c-17 -3 -30 -26 -68 -130 -46 -125 -135 -420 -135 -447 0
-8 -13 -21 -28 -29 -16 -8 -34 -22 -42 -31 -19 -23 -15 -85 9 -133 21 -41 41
-51 68 -34 9 6 43 159 43 196 0 4 29 5 64 1 42 -4 66 -3 71 4 5 10 -32 15
-107 14 -10 0 -18 8 -18 17 0 42 89 332 153 502 14 37 23 69 19 71 -4 2 -17 1
-29 -1z m-226 -684 c-3 -8 -6 -5 -6 6 -1 11 2 17 5 13 3 -3 4 -12 1 -19z"/>
<path d="M5301 1336 c-42 -15 -81 -59 -81 -93 0 -16 13 -38 35 -59 49 -45 117
-59 227 -44 90 12 107 20 84 40 -12 9 -39 10 -113 4 -130 -12 -177 -6 -181 23
-5 34 25 70 74 89 48 18 54 28 25 44 -24 12 -27 12 -70 -4z"/>
<path d="M4260 1331 c-161 -34 -134 -151 44 -191 55 -12 133 2 171 31 31 25
33 71 4 100 -45 45 -150 74 -219 60z m165 -45 c63 -41 -12 -116 -118 -119 -67
-1 -97 15 -97 52 0 72 140 116 215 67z"/>
<path d="M4940 1331 c-130 -27 -147 -112 -33 -167 44 -22 72 -27 163 -32 l110
-5 0 102 c0 55 -3 101 -6 101 -15 0 -44 -22 -44 -35 0 -11 -11 -9 -47 9 -58
29 -97 36 -143 27z m155 -62 c28 -25 35 -38 35 -68 l0 -36 -73 1 c-120 2 -127
3 -153 29 -21 21 -23 28 -14 45 18 35 71 60 122 60 39 0 54 -6 83 -31z"/>
<path d="M3310 1313 c-41 -21 -59 -61 -42 -97 17 -39 115 -81 187 -81 114 1
184 62 139 122 -33 44 -90 67 -174 71 -57 2 -83 -1 -110 -15z m181 -13 c20 -6
44 -19 54 -30 16 -18 17 -21 1 -45 -24 -37 -74 -58 -138 -59 -42 -1 -61 4 -77
18 -53 48 -4 100 119 125 3 0 21 -4 41 -9z"/>
<path d="M5892 1265 c8 -90 51 -122 178 -132 l80 -6 0 76 c0 66 -3 78 -20 87
-32 17 -42 3 -39 -64 l2 -61 -56 0 c-74 1 -92 17 -92 86 0 50 -12 68 -44 69
-10 0 -12 -13 -9 -55z"/>
<path d="M6215 1272 c30 -17 66 -49 93 -84 50 -67 87 -79 97 -30 15 71 27 102
40 102 8 0 43 -27 78 -60 47 -44 72 -60 93 -60 l28 0 -33 33 c-29 31 -31 36
-20 60 7 16 20 27 31 27 24 0 92 -46 137 -94 34 -35 64 -46 75 -27 7 11 -81
94 -121 115 -51 26 -106 30 -146 11 -32 -15 -38 -15 -66 -1 -61 32 -141 9
-141 -40 0 -12 -10 -7 -37 16 -43 38 -91 60 -130 60 -25 0 -23 -3 22 -28z"/>
<path d="M3640 1281 c0 -5 11 -12 25 -15 32 -8 88 -58 116 -102 17 -28 27 -34
47 -32 23 3 28 10 38 54 14 64 20 74 45 74 29 0 71 -24 138 -80 33 -27 67 -50
75 -50 30 0 25 19 -17 53 -142 116 -238 135 -286 57 -16 -27 -20 -29 -31 -15
-27 33 -150 78 -150 56z"/>
<path d="M3100 1259 c-41 -10 -91 -30 -112 -44 -30 -20 -39 -22 -45 -11 -17
29 -84 58 -147 63 -35 3 -66 2 -69 -3 -3 -5 13 -10 36 -11 59 -4 108 -33 135
-82 28 -50 47 -48 103 8 40 42 115 81 156 82 16 0 37 4 48 9 39 17 -25 10
-105 -11z"/>
<path d="M2620 828 c-43 -16 -60 -39 -60 -80 0 -76 84 -116 141 -68 l24 20
-30 -15 c-43 -21 -72 -19 -100 10 -68 67 24 165 103 109 12 -8 22 -11 22 -5 0
22 -66 42 -100 29z"/>
<path d="M3105 831 c-46 -13 -75 -48 -75 -91 0 -36 53 -80 95 -80 27 0 44 8
66 29 36 36 37 70 4 109 -26 31 -56 42 -90 33z m75 -31 c30 -30 27 -83 -6
-109 -15 -12 -37 -21 -49 -21 -27 0 -72 33 -80 60 -7 21 17 75 37 83 31 13 79
6 98 -13z"/>
<path d="M4073 825 c-59 -25 -72 -93 -27 -139 30 -29 86 -35 117 -12 27 21 20
26 -13 9 -83 -41 -159 49 -95 112 29 29 79 33 107 8 10 -9 21 -14 24 -10 7 6
-32 32 -61 40 -11 4 -34 0 -52 -8z"/>
<path d="M4826 829 c-61 -17 -87 -68 -61 -119 29 -56 102 -69 149 -25 44 40
35 55 -31 53 -57 -2 -57 -2 -10 -5 52 -5 62 -22 25 -47 -78 -55 -174 48 -105
112 27 26 88 30 107 7 7 -8 17 -15 22 -15 18 0 -12 28 -40 38 -15 5 -40 5 -56
1z"/>
<path d="M1427 823 c20 -4 22 -11 26 -86 l3 -82 2 82 c2 76 4 82 25 86 12 2 0
4 -28 4 -27 0 -40 -2 -28 -4z"/>
<path d="M1593 745 c0 -49 2 -71 4 -47 l4 42 50 0 49 0 0 -41 c0 -24 4 -38 10
-34 6 3 10 42 10 86 0 46 -4 79 -10 79 -5 0 -10 -18 -10 -41 l0 -40 -47 3
c-48 3 -48 3 -54 43 -4 26 -6 7 -6 -50z"/>
<path d="M1820 745 l0 -85 48 1 47 2 -40 6 c-36 5 -40 9 -43 38 -3 31 -2 32
40 36 l43 4 -42 1 c-42 2 -43 3 -43 36 0 34 1 35 43 39 l42 4 -47 1 -48 2 0
-85z"/>
<path d="M2162 743 l2 -88 5 80 6 80 34 -77 c18 -43 37 -78 42 -78 4 0 11 9
14 21 4 11 19 46 33 77 l27 57 6 -80 5 -80 2 88 c2 109 -11 114 -53 17 -16
-38 -33 -70 -36 -70 -3 0 -19 32 -36 70 -17 39 -36 70 -42 70 -7 0 -10 -30 -9
-87z"/>
<path d="M2454 745 c0 -49 1 -71 3 -48 2 23 2 64 0 90 -2 26 -3 8 -3 -42z"/>
<path d="M2832 743 l2 -88 3 83 4 83 36 -3 c43 -4 64 -29 47 -55 -6 -10 -21
-19 -33 -21 -27 -4 -26 -10 9 -52 32 -38 41 -30 11 10 -19 24 -19 24 2 35 29
14 35 64 11 82 -10 7 -35 13 -56 13 l-38 0 2 -87z"/>
<path d="M3302 818 c4 -9 16 -48 28 -87 11 -39 25 -71 30 -71 5 0 16 26 25 58
25 91 26 91 48 14 11 -40 25 -71 31 -69 12 4 58 145 53 161 -3 6 -15 -25 -28
-69 l-23 -80 -24 78 c-13 42 -26 77 -30 77 -5 0 -16 -31 -27 -70 -11 -38 -22
-70 -26 -70 -3 0 -14 29 -24 65 -9 36 -22 68 -28 72 -6 4 -8 0 -5 -9z"/>
<path d="M3652 783 c-11 -27 -27 -65 -36 -85 -19 -45 -13 -51 9 -8 14 27 21
30 61 30 41 0 46 -3 55 -30 6 -16 15 -30 19 -30 5 0 -8 38 -28 85 -20 46 -42
85 -48 85 -6 0 -20 -21 -32 -47z m53 -9 c8 -20 15 -38 15 -40 0 -2 -16 -4 -35
-4 -19 0 -35 5 -35 10 0 13 29 70 35 70 3 0 12 -16 20 -36z"/>
<path d="M3858 823 c21 -4 22 -9 22 -84 0 -46 4 -79 10 -79 6 0 10 33 10 79 0
75 1 80 23 84 12 2 -3 4 -33 4 -30 0 -45 -2 -32 -4z"/>
<path d="M4293 745 c0 -49 2 -71 4 -47 l4 42 50 0 49 0 0 -41 c0 -24 4 -38 10
-34 6 3 10 42 10 86 0 46 -4 79 -10 79 -5 0 -10 -18 -10 -41 l0 -40 -47 3
c-48 3 -48 3 -54 43 -4 26 -6 7 -6 -50z"/>
<path d="M5071 766 c-34 -75 -51 -129 -24 -78 15 29 21 32 64 32 44 0 48 -2
58 -32 6 -17 13 -29 16 -26 8 8 -61 162 -74 166 -6 2 -24 -26 -40 -62z m62 4
l15 -40 -38 0 -38 0 15 40 c9 22 19 40 23 40 4 0 14 -18 23 -40z"/>
<path d="M5287 823 c20 -4 22 -11 26 -86 l3 -82 2 82 c2 76 4 82 25 86 12 2 0
4 -28 4 -27 0 -40 -2 -28 -4z"/>
<path d="M5453 745 c0 -49 2 -71 4 -47 l4 42 50 0 49 0 0 -40 c0 -22 5 -40 10
-40 6 0 10 35 10 85 0 50 -4 85 -10 85 -5 0 -10 -18 -10 -41 l0 -40 -47 3
c-48 3 -48 3 -54 43 -4 26 -6 7 -6 -50z"/>
<path d="M5680 745 l0 -85 48 1 47 2 -39 6 c-36 5 -40 9 -43 39 -4 32 -3 32
39 33 l43 2 -40 6 c-36 5 -40 9 -40 36 0 27 4 31 40 36 l40 6 -47 2 -48 1 0
-85z"/>
<path d="M5882 743 l2 -88 3 83 4 83 36 -3 c43 -4 64 -29 47 -55 -6 -10 -21
-19 -33 -21 -11 -2 -21 -6 -21 -8 0 -10 53 -74 58 -70 2 3 -5 17 -17 32 l-21
27 22 11 c30 15 37 65 12 83 -10 7 -35 13 -56 13 l-38 0 2 -87z"/>
<path d="M6094 745 c0 -49 1 -71 3 -48 2 23 2 64 0 90 -2 26 -3 8 -3 -42z"/>
<path d="M6200 745 c0 -106 18 -113 22 -9 l3 76 55 -78 c61 -87 57 -89 62 34
2 34 0 62 -4 62 -4 0 -8 -32 -10 -71 l-3 -71 -49 71 c-65 96 -76 94 -76 -14z"/>
<path d="M6465 798 c-21 -25 -25 -38 -21 -62 15 -79 123 -102 173 -37 26 33
16 41 -49 39 l-63 -2 53 -3 c53 -4 67 -18 39 -42 -43 -35 -118 -17 -136 32
-10 28 5 74 29 87 27 15 73 12 96 -5 29 -22 43 -17 15 5 -15 13 -38 20 -66 20
-36 0 -48 -5 -70 -32z"/>
</g>
</svg>
