<?xml version="1.0" encoding="UTF-8"?>
<svg version="1.1" viewBox="0 0 2048 1056" width="125" height="65" xmlns="http://www.w3.org/2000/svg">
<path transform="translate(0)" d="m0 0h2048v1056h-2048z" fill="#FEFEFE"/>
<path transform="translate(1540,226)" d="m0 0h412l1 410-1 1h-100l-308 1-3-1-1-3-1-90v-240z" fill="#FEFEFE"/>
<path transform="translate(828,191)" d="m0 0h40l6 2 14 3 17 6 17 9 13 10 10 9 9 9 10 14 9 16 7 16 5 20 1 11v19l-2 19-5 18-8 18-9 15-9 11-17 17-15 10-16 8-19 7-20 5h-35l-14-4-7-1-21-8-18-10-13-10-15-15-10-13-8-13-8-19-4-15-2-19v-19l2-18 6-21 8-16 8-13 8-10 9-10 12-10 13-9 15-8 19-7 13-2z" fill="#030202"/>
<path transform="translate(519,191)" d="m0 0h41l7 3 10 1 19 7 15 8 13 9 13 12 8 8 10 13 9 16 6 14 5 19 2 17v17l-2 18-5 19-6 15-8 14-11 14-17 17-16 11-16 8-18 7-12 2-4 2-11 1h-32l-6-3-15-3-20-8-16-9-14-11-6-5-7-8-11-14-9-16-7-17-5-19-1-8v-31l3-15 5-17 10-21 9-13 9-11 12-11 18-13 16-8 13-5 16-4z" fill="#030202"/>
<path transform="translate(1510,195)" d="m0 0h473v473l-1 1h-472zm30 31-1 78v240l1 90 1 3 3 1 308-1h100l1-4-1-407z" fill="#030202"/>
<path transform="translate(1033,195)" d="m0 0h95l5 3 4 1 10-1 23 7 14 7 13 10 12 12 9 12 8 14 7 15 5 17 3 21v33l-4 24-6 18-8 16-10 15-17 17-13 8-12 6-12 4-6 1-8-1-6 4-28 1h-78z" fill="#030202"/>
<path transform="translate(104,194)" d="m0 0h11l2 5 23 100 12 56 1 4 4-10 18-64 19-70 4-13 2-7h41l3 8 8 26 16 57 18 64 4 10 6-28 19-86 8-34 4-16 1-1h48l-1 9-16 69-12 55-14 62-15 64-2 4-4 1h-42l-4-10-14-49-18-61-9-33-3-12-2-3-16 59-10 35-12 44-8 27-2 3h-45l-5-16-16-69-18-81-19-83-3-11v-4z" fill="#030202"/>
<path transform="translate(831,241)" d="m0 0h32l18 5 13 7 12 9 7 6 10 14 8 16 3 12 1 6v21l-3 16-6 15-9 13-10 11-10 7-16 8-15 5h-23l-5 1-8-2-16-5-15-8-9-7-8-7-9-12-7-15-3-10-1-8v-24l3-15 6-15 10-14 6-7 16-12 12-6 6-2 9-2z" fill="#FEFEFE"/>
<path transform="translate(526,240)" d="m0 0 11 1h18l17 5 13 7 13 10 11 11 7 11 6 13 4 17 1 14-2 16-5 17-8 14-11 12-7 7-13 8-11 5-9 2-7 3-23-1-6 1-5-3-13-3-17-9-12-9-10-11-9-16-5-16-1-7v-22l3-17 7-16 7-11 9-10 15-11 17-8 8-1z" fill="#FEFEFE"/>
<path transform="translate(1270,195)" d="m0 0h55l20 39 10 19 17 33 3 2 2-6 11-20 24-48 8-14 2-5h54l-2 5-17 33-10 19-24 47-20 38-3 6-2 115-2 1h-48l-1-116-14-26-18-35-12-23-12-22-19-37z" fill="#030202"/>
<path transform="translate(1084,245)" d="m0 0h40l4 2 14 3 16 8 10 8 7 8 7 11 5 13 3 15 1 9v12l-2 19-5 16-8 14-8 10-11 7-8 4-13 2-3 2-49 1-1-1v-162z" fill="#FEFEFE"/>
<path transform="translate(434,576)" d="m0 0h10l10 3 9 5 5 5 6 8 4 11v16l-3 10-8 11-8 6-12 5h-19l-10-4-9-7-6-7-4-9-1-5v-16l4-11 7-9 8-6 12-5z" fill="#FEFEFE"/>
<path transform="translate(996,576)" d="m0 0h7l11 3 10 5 8 8 6 12 1 6v15l-4 11-7 9-8 6-9 4-4 1h-18l-12-5-10-9-6-10-2-7v-17l4-11 7-9 8-6 12-5z" fill="#FEFEFE"/>
<path transform="translate(550,576)" d="m0 0 12 1 11 4 9 7 7 10 3 9 1 11-2 12-5 10-9 9-12 6-3 1h-19l-12-5-10-9-6-9-2-6v-20l4-11 7-9 11-7 8-3z" fill="#FEFEFE"/>
<path transform="translate(638,576)" d="m0 0h13l13 2 12 5 6 5 7 11 3 12v14l-4 13-6 8-8 6-12 4h-31v-79z" fill="#FEFEFE"/>
<path transform="translate(368,567)" d="m0 0 4 1 1 5-6 24-15 57-3 11-4-1-3-7-7-21-13-37-3-6-3 7-10 30-10 26-4 10-3-1-4-13-10-38-11-44 1-2h8l2 3 16 64 1 1 7-19 12-34 5-14 4-1 4 8 16 45 4 12 2 2 7-26 8-31 3-8z" fill="#030202"/>
<path transform="translate(624,568)" d="m0 0h34l10 2 12 5 10 9 6 8 4 9 2 12v9l-3 14-6 11-7 8-16 8-9 2h-39l-1-1v-95zm14 8-7 1v79h31l12-4 8-6 6-8 4-13v-14l-3-12-7-11-8-6-13-5-10-1z" fill="#030202"/>
<path transform="translate(1386,568)" d="m0 0h20l16 5 12 7 6 7-2 3h-7l-19-10-11-3h-12l-12 4-9 5-7 6-5 8-3 12 1 13 4 10 7 9 10 7 11 4h20l13-5 9-7 5-8 1-8-29-1-2-2v-5l9-1h30l5 2-1 9-4 11-6 9-8 7-12 6-13 3h-13l-10-2-14-6-10-8-7-8-5-12-1-5v-16l4-12 6-9 9-9 16-8z" fill="#030202"/>
<path transform="translate(545,568)" d="m0 0h16l13 4 9 5 10 10 5 8 4 12v19l-4 12-9 12-9 7-11 5-11 3h-12l-11-3-12-6-10-9-6-9-3-8-1-5v-16l3-11 6-11 10-10 14-7zm5 8-10 2-12 6-5 4-7 10-3 9v20l4 10 9 10 9 6 8 3h19l11-5 6-4 7-7 5-10 2-12-2-15-5-10-7-8-8-5-9-3z" fill="#030202"/>
<path transform="translate(1247,568)" d="m0 0 7 6 12 13 7 8 11 12 9 11 10 11 7 8 3 3 1-72h9l1 40v57l-5-3-10-11-7-8-12-13-7-8-9-10-7-8-9-10-2-1v72h-10z" fill="#030202"/>
<path transform="translate(991,568)" d="m0 0h16l13 4 9 5 9 8 6 10 4 10 1 6v12l-3 12-6 10-9 9-10 6-12 4-5 1h-13l-12-4-11-6-9-8-6-10-3-9-1-7v-9l2-11 5-10 8-10 10-7 8-4zm5 8-12 3-9 5-8 7-6 10-2 7v17l4 11 6 8 8 7 12 5h18l11-4 9-6 7-8 4-9 1-4v-15l-2-9-6-10-7-7-12-6-9-2z" fill="#030202"/>
<path transform="translate(102,599)" d="m0 0 11 1 10 6 7 9 2 5v15l-3 7-7 8-8 5-3 1h-15l-8-4-7-7-4-8-1-3v-11l4-11 8-8 9-4z" fill="#FEFEFE"/>
<path transform="translate(431,568)" d="m0 0h16l15 5 11 8 8 10 5 10 2 8v14l-3 12-7 11-8 8-11 6-11 4-5 1h-12l-13-4-11-6-10-10-5-8-4-16v-9l3-13 6-11 11-11 14-7zm3 8-13 4-10 6-7 8-5 10-1 4v16l3 10 6 9 8 7 10 5 3 1h19l12-5 9-7 7-10 3-10v-16l-4-11-8-11-10-6-7-3-5-1z" fill="#030202"/>
<path transform="translate(68,564)" d="m0 0 9 2 1 37 9-7 9-4 13-1 12 3 11 8 7 10 3 10v12l-4 11-7 9-5 4-10 5-7 2h-10l-11-4-9-6-2-2-1 11-1 1h-8v-100zm34 35-10 3-6 4-7 8-3 9v11l4 9 7 8 7 4 2 1h15l10-5 7-7 3-5 1-4v-15l-4-8-6-7-9-5z" fill="#030202"/>
<path transform="translate(864,568)" d="m0 0h7v42h49v-24l1-17 2-1h7v97h-10v-23l1-23h-50v46h-9l-1-1v-69l1-26z" fill="#030202"/>
<path transform="translate(1069,568)" d="m0 0h7l1 1v62l2 14 4 6 8 4h13l6-3 5-6 2-7 1-11v-57l1-3h8l1 1v65l-2 11-4 8-7 7-12 5h-11l-12-5-6-5-5-9-2-8v-69z" fill="#030202"/>
<path transform="translate(810,568)" d="m0 0h12l10 5 7 6 2 3-1 4h-8l-10-8-3-1h-8l-6 5-2 5 1 7 7 8 16 12 7 6 7 12 1 3v9l-5 10-9 8-8 3h-10l-9-4-10-9-2-3v-5l3-3 4 2 9 10 8 3 10-2 5-4 2-5v-9l-6-9-7-7-14-11-7-8-2-4v-15l4-6 7-6z" fill="#030202"/>
<path transform="translate(1170,567)" d="m0 0 10 2 11 7 4 5-1 5-5 1-8-6-7-4h-9l-6 7-1 6 3 7 8 8 14 10 8 8 6 12v9l-5 10-8 7-9 4h-9l-10-4-10-9-2-6 2-5 4 1 9 10 5 3 7 1 7-2 5-4 2-5v-9l-4-7-9-9-13-10-8-9-3-7v-7l4-10 8-7z" fill="#030202"/>
<path transform="translate(153,591)" d="m0 0h7l4 9 14 32 5 12h2l14-32 9-19 5-2 5 1-4 11-13 29-18 41-6 14-5 5-6-1-1-2 11-24 1-10-11-25-12-28-3-10z" fill="#030202"/>
<path transform="translate(715,567)" d="m0 0 7 1 5 5 12 20 8 13 4-4 11-19 8-13 7-3 4 1v5l-10 15-10 17-7 10-1 4-1 45-1 1h-8l-1-6v-40l-5-10-17-28-6-9z" fill="#030202"/>
<path transform="translate(1217,567)" d="m0 0 6 1 1 1 1 13v83h-10v-92z" fill="#030202"/>
</svg>
