<?xml version="1.0" encoding="UTF-8"?>
<svg version="1.1" viewBox="0 0 2048 609" width="125" height="65" xmlns="http://www.w3.org/2000/svg">
<path transform="translate(0)" d="m0 0h2048v609h-2048z" fill="#FEFEFE"/>
<path transform="translate(426,183)" d="m0 0h17l15 3 12 5 12 7 11 9 11 16 6 13 4 16 1 13-2 16-5 16-7 13-11 13-13 10-15 7-14 4-9 1h-10l-14-2-16-6-12-7-10-9-8-9-8-14-5-13-3-17v-9l2-14 6-16 6-11 11-13 11-9 12-7 16-5z" fill="#FEFEFE"/>
<path transform="translate(1158,157)" d="m0 0h2l23 54 16 37 48 112v2l-17 1h-6l-4-6-13-31-7-17v-2h-85l-3 9-13 30-7 16-8 1-17-1 9-21 20-45 19-43 20-45 19-43z" fill="#090404"/>
<path transform="translate(719,155)" d="m0 0 2 3 8 20 13 30 60 140 5 12v2l-20 1-4-1-5-10-12-29-6-15-2-1h-83l-1 5-20 47-1 3-2 1h-23l1-5 20-45 11-25 34-77 18-41z" fill="#090404"/>
<path transform="translate(423,162)" d="m0 0h22l20 4 15 6 13 8 9 7 7 6 11 14 8 14 6 16 3 17v21l-3 15-5 15-7 13-8 11-8 9-16 12-10 6-16 6-13 3-8 1h-18l-18-3-16-6-16-9-13-11-5-5-10-12-9-17-5-17-2-12v-19l3-17 5-15 9-16 11-13 5-5 11-9 15-9 16-6zm3 21-13 2-14 5-11 7-10 8-8 9-7 11-5 11-4 13-1 10v9l3 17 5 13 6 11 8 10 9 9 13 8 12 5 11 3 9 1h10l13-2 15-5 13-7 12-10 11-14 7-15 4-17 1-12-2-17-5-15-7-13-9-12-13-10-15-8-14-4-7-1z" fill="#0A0505"/>
<path transform="translate(1777,165)" d="m0 0h20l1 1v79h100v-79l1-1h21l1 1v196l-1 1h-21l-1-1v-95h-99l-1 95-1 1h-21v-197z" fill="#0A0505"/>
<path transform="translate(102,165)" d="m0 0h22l1 83 83-83h29l-2 4-32 32-10 9-46 46h-2l7 8 12 13 11 12 7 8 13 14 7 8 14 15 7 8 12 13 5 6v2l-31-1-36-40-7-8-9-10-10-11-7-8-10-11-4 2-1 2-1 84-1 1h-21z" fill="#060303"/>
<path transform="translate(1588,162)" d="m0 0h23l20 4 17 8 10 7 1 3v25l-8-6-9-7-17-8-10-3-8-1h-17l-12 2-12 4-13 8-11 9-10 14-7 14-4 13-1 8v15l2 13 5 13 7 13 9 10 5 5 9 7 14 7 14 4 8 1h14l17-4 12-5 11-7 8-6 3-3 1 3-1 25-13 8-17 7-14 3-9 1h-14l-18-3-14-5-15-8-12-9-10-9-9-12-9-16-5-15-3-16v-16l4-20 6-17 9-15 9-11 12-11 14-9 10-5 16-5z" fill="#0A0505"/>
<path transform="translate(1410,257)" d="m0 0h2l1 7-9 31-1 5 9-2 19-8 4-1h7l-1 5-7 9-11 12-3 5v4l14 8 17 8 8 6-2 3h-18l-11-1h-21l-4 2v14l2 11v9l-1 3-5-1-6-7-8-14-5-6-4 1-7 10-6 9-2 2-5-1-3-4-7-18h-9l-26 2-4-2 2-4 9-7 16-10 8-6 1-4-5-4-18-8-4-4 1-3 14-2 10-1 2-1-2-6-10-18-4-9 1-5 6 1 13 12 10 9 5 3h5l1-27h4l6 17 2 3 5-1 9-10 8-10 5-5z" fill="#B95C61"/>
<path transform="translate(909,165)" d="m0 0h21l1 176 54 1v20l-1 1h-75l-1-1v-196z" fill="#0B0505"/>
<path transform="translate(1157,208)" d="m0 0h2l8 20 18 43 6 15h-67l10-23 15-35 7-16z" fill="#FEFEFE"/>
<path transform="translate(718,208)" d="m0 0 2 2 15 37 16 38v1h-66l2-6 19-44z" fill="#FEFEFE"/>
<path transform="translate(1373,305)" d="m0 0h12l7 4 6 7 1 3v12l-3 6-7 6-4 2h-11l-8-4-6-7-1-3v-13l6-8 5-4z" fill="#FEFEFE"/>
</svg>
