<?xml version="1.0" encoding="UTF-8"?>
<svg version="1.1" viewBox="0 0 2048 598" width="125" height="65" xmlns="http://www.w3.org/2000/svg">
<path transform="translate(0)" d="m0 0h2048v598h-2048z" fill="#FDFEFD"/>
<path transform="translate(170,163)" d="m0 0h25l20 4 16 6 14 9 9 8 6 7v-27l1-1h72v216l-4 29-8 22-9 16-9 11-9 9-13 9-16 8-14 5-21 5-15 2-24 1-26-2-22-4-19-5-20-7-23-12-7-5 2-4 10-14 13-17 10-14 2-4 4 2 15 10 18 8 18 5 16 2h23l16-4 13-7 7-5 8-13 4-9 3-16v-20l-16 14-16 8-17 5-13 2h-19l-20-3-16-5-16-8-11-8-10-9-10-12-9-16-8-22-3-19v-25l3-20 7-21 10-18 9-11 6-7 10-8 14-9 16-7 16-4z" fill="#0D2564"/>
<path transform="translate(500,162)" d="m0 0h27l19 3 18 5 15 6 14 8 12 9 10 9 10 13 8 14 7 17 4 21v27l-4 21-6 16-6 11-10 14-7 8-11 9-15 10-16 8-19 6-23 4h-27l-24-4-21-7-19-10-12-9-12-11-8-10-8-13-6-13-5-15-2-13v-31l3-16 8-21 8-13 10-13 14-13 14-9 16-8 15-5 20-4z" fill="#0D2564"/>
<path transform="translate(1741,162)" d="m0 0 22 1 20 4 17 6 16 9 10 8 13 13 10 15 7 16 5 19 3 17 1 31-1 1h-170l1 7 6 12 8 9 11 7 12 4 10 2h19l15-4 14-7 10-9 1-2 4 1 15 9 32 19 3 3-6 8-11 11-13 9-16 8-13 5-21 5-8 1h-32l-16-2-19-5-15-6-15-8-12-9-11-10-11-14-8-16-5-15-4-21v-20l3-19 5-18 8-16 8-12 12-13 9-8 16-10 18-8 18-5 13-2z" fill="#316CC5"/>
<path transform="translate(768,162)" d="m0 0h26l20 3 17 4 19 8 11 6 13 9-2 4-16 15-24 24-10-7-15-8-9-3-6-1h-19l-12 4-5 4-2 6v7l3 5 8 5 29 8 21 5 19 8 12 7 10 9 6 7 7 14 2 8 1 14-2 14-4 13-6 10-9 10-9 8-16 8-17 6-15 3-10 1h-27l-17-2-18-4-17-5-16-8-11-7-8-7 1-4h2l2-4 35-35 4 1 9 8 15 8 15 5 5 1h19l10-3 8-7 2-5v-7l-4-7-8-5-15-5-34-9-19-7-11-7-10-9-6-8-5-10-3-10-1-7v-10l4-16 4-10 8-11 8-8 13-9 14-7 17-5z" fill="#316CC5"/>
<path transform="translate(1026,161)" d="m0 0h18l21 3 20 5 20 9 18 12-1 4-9 9-7 8-11 12-7 8-8 10-8-6-8-5-9-4-9-2h-16l-12 3-13 7-8 8-7 11-5 14-1 6v17l5 17 5 9 9 10 10 6 10 4 6 1h19l16-4 12-7 3-3 4 1 11 13 9 10 9 11 11 12-2 4-15 10-13 6-19 6-15 3-10 1h-24l-17-2-17-4-15-5-16-8-13-9-10-9-10-11-11-18-6-15-4-14-1-7v-34l3-15 7-19 8-14 10-13 10-10 15-11 12-7 21-8 24-5z" fill="#316CC5"/>
<path transform="translate(1141,281)" d="m0 0h262l1 3-1 14-5 20-8 19-9 14-12 14-10 9-16 10-16 7-19 6-12 3-18 2h-11l-24-3-15-3-18-6-20-10-14-11-13-15-10-15-5-10-6-18-4-22v-6z" fill="#FECF0A"/>
<path transform="translate(1258,162)" d="m0 0h26l25 4 16 5 16 7 15 9 10 8 12 12 9 13 8 16 5 16 3 15v14h-263l-1-5 2-17 5-18 8-18 8-12 11-12 7-7 14-10 15-8 21-7 20-4z" fill="#306BC4"/>
<path transform="translate(1578,164)" d="m0 0h30v20l-3 45-2 1-6-1h-24l-9 2-14 7-9 9-6 10-4 16-1 121h-77v-225h73l1 1 1 32 7-11 11-12 10-7 13-6z" fill="#306BC4"/>
<path transform="translate(507,223)" d="m0 0h11l12 2 10 4 9 7 5 5 7 8 4 8 4 15 1 6v8l-4 18-5 10-9 10-7 6-13 6-8 2h-18l-10-2-16-8-10-9-8-14-3-8-1-7v-19l2-10 8-16 7-8 11-8 14-5z" fill="#FDFEFD"/>
<path transform="translate(191,224)" d="m0 0h22l17 5 11 8 5 5 6 8 6 15 2 10v8l-3 16-4 10-8 11-8 7-8 5-11 4-5 1h-22l-12-4-10-6-9-8-8-13-4-13-1-5v-16l4-16 6-11 8-9 11-7 11-4z" fill="#FDFEFD"/>
<path transform="translate(1917,90)" d="m0 0h31l1 48 1 1h51v30h-53v48h-31l-1-48h-36l-16-1v-28l1-1 51-1z" fill="#306BC4"/>
<path transform="translate(1736,213)" d="m0 0h23l10 3 10 6 7 7 5 10 2 8v9h-100l2-9 4-9 4-6 10-10 12-6z" fill="#FDFEFD"/>
</svg>
